<svg width="48" height="48" viewBox="0 0 49 49" fill="none" xmlns="http://www.w3.org/2000/svg">
  <!-- Background Rectangle -->
  <rect width="48" height="48" rx="8" fill="url(#grad1)" />

  <!-- Envelope Body -->
  <path d="M8 16C8 13.7909 9.79086 12 12 12H36C38.2091 12 40 13.7909 40 16V32C40 34.2091 38.2091 36 36 36H12C9.79086 36 8 34.2091 8 32V16Z" fill="white" />
  
  <!-- Envelope Flap -->
  <path d="M8 16L24 26L40 16" fill="none" stroke="url(#grad2)" stroke-width="2" stroke-linecap="round" stroke-linejoin="round" />

  <!-- Shadows -->
  <path d="M8 16L24 26L40 16V32C40 34.2091 38.2091 36 36 36H12C9.79086 36 8 34.2091 8 32V16Z" fill="url(#shadow)" />

  <!-- Gradients -->
  <defs>
    <linearGradient id="grad1" x1="0" y1="0" x2="48" y2="48" gradientUnits="userSpaceOnUse">
      <stop offset="0%" stop-color="#42A5F5" />
      <stop offset="100%" stop-color="#1E88E5" />
    </linearGradient>
    <linearGradient id="grad2" x1="8" y1="16" x2="40" y2="16" gradientUnits="userSpaceOnUse">
      <stop offset="0%" stop-color="#FFCA28" />
      <stop offset="100%" stop-color="#FB8C00" />
    </linearGradient>
    <linearGradient id="shadow" x1="8" y1="26" x2="40" y2="26" gradientUnits="userSpaceOnUse">
      <stop offset="0%" stop-color="#000" stop-opacity="0.1" />
      <stop offset="100%" stop-color="#000" stop-opacity="0" />
    </linearGradient>
  </defs>
</svg>
